<svg width="32" height="32" xmlns="http://www.w3.org/2000/svg">
   <path d="M0 0h32v32H0z" fill="#163029" />
   <path fill="#e6e6e6" d="M16.751 13.732H12.73q-.08-.62-.33-1.118-.25-.499-.66-.852-.41-.354-.973-.54-.555-.192-1.23-.192-1.198 0-2.067.587-.86.587-1.327 1.697-.458 1.11-.458 2.686 0 1.64.466 2.75.475 1.102 1.327 1.665.86.555 2.035.555.66 0 1.198-.169.547-.168.957-.49.418-.33.684-.796.273-.475.378-1.07l4.021.024q-.104 1.094-.635 2.156-.523 1.061-1.44 1.938-.917.868-2.236 1.383-1.31.515-3.008.515-2.235 0-4.005-.981-1.761-.99-2.783-2.88-1.02-1.89-1.02-4.6 0-2.718 1.037-4.608 1.037-1.89 2.806-2.872 1.77-.98 3.965-.98 1.496 0 2.767.417 1.27.41 2.236 1.207.965.788 1.568 1.938.603 1.15.748 2.63zM17.251 24.46V7.99h6.869q1.85 0 3.096.522 1.255.523 1.882 1.464.636.941.636 2.18 0 .94-.395 1.68-.394.732-1.085 1.215-.692.483-1.6.676v.16q.996.049 1.841.54.852.49 1.367 1.367.515.868.515 2.058 0 1.327-.676 2.373-.675 1.037-1.954 1.64-1.279.596-3.104.596zm3.981-3.208h2.462q1.294 0 1.906-.49.619-.491.619-1.368 0-.635-.298-1.094-.297-.466-.844-.716-.547-.257-1.311-.257h-2.534zm0-6.49h2.204q.652 0 1.158-.218.507-.217.788-.627.29-.41.29-.99 0-.828-.587-1.302-.587-.475-1.585-.475h-2.268z" />
</svg>